<svg xmlns="http://www.w3.org/2000/svg" width="58" height="170" viewBox="0 0 58 170"><g><g><g/><g><g><path fill="#fe9067" d="M11.017 45.3S8.4 56.39 8.099 58.348c-.252 1.957-.05 11.277-.05 11.277l-4.125-1.211L0 56.904 4.024 45.16z"/></g><g><path fill="#fe9067" d="M46.98 46.46s2.616 11.09 2.918 13.048c.301 1.957.05 11.277.05 11.277l4.125-1.211 3.924-11.51-4.025-11.744z"/></g><g><path fill="#3e3f43" d="M20.222 109.65l7.897-17.662 2.515.047 1.66 17.615 6.741 60.301h8.451l-4.829-3.401s4.276-28.1 4.98-56.947c.252-7.829.252-22.601-.05-29.871l-36.42-.932c-.402 5.825-4.527 21.856-5.181 30.803-1.459 24.885 1.157 56.62 1.157 56.62l-5.433 3.728h8.451z"/></g><g><path fill="#3ea3f2" d="M48.79 82.022C27.008 83.7 30.83 86.775 9.1 85.098l2.264-35.324L.8 45.487S5.83 32.439 6.836 31.32c1.007-1.118 14.99-7.502 17.758-7.316 1.106.047 2.716.14 4.326.28 1.66-.14 3.22-.233 4.326-.28 2.767-.186 16.801 6.198 17.757 7.316 1.006 1.119 6.036 14.167 6.036 14.167l-10.614 4.287z"/></g><g><path fill="#3e3f43" d="M42.054 68.552c.101 0 .252-.047.302-.14.05-.14 0-.326-.15-.42-9.76-4.8-17.506-12.675-21.782-22.135-.05-.14-.252-.233-.403-.14-.15.047-.251.234-.15.373 4.376 9.554 12.223 17.522 22.083 22.369 0 .046.05.093.1.093z"/></g><g><path fill="#3e3f43" d="M31.439 72.324c.05 0 .15 0 .2-.046.152-.093.152-.28.051-.42-4.074-4.8-6.942-8.9-8.853-14.26-.05-.14-.252-.232-.403-.186-.15.047-.251.233-.2.373 1.96 5.452 4.879 9.553 8.953 14.446a.4.4 0 0 0 .252.093z"/></g><g><path fill="#3e3f43" d="M45.88 46.74c.202 0 .353-.14.302-.327-.402-4.333.705-8.76 3.12-12.535.1-.14.05-.326-.101-.42a.343.343 0 0 0-.453.094c-2.465 3.821-3.622 8.434-3.22 12.862.05.232.202.326.353.326z"/></g><g><path fill="#fe9067" d="M34.909 17.01v6.804s-5.936 5.825-11.419.14l.503-6.944z"/></g><g><path fill="#fe9067" d="M29.33 1.167c6.39.186 7.295 6.757 7.194 12.302-.1 5.546-2.767 9.227-6.841 9.507-4.024.28-6.992-3.449-8.2-8.528-1.207-5.08-2.414-13.56 7.848-13.281z"/></g><g><path fill="#fe9067" d="M35.616 12.067s0-2.236 2.012-1.677c2.063.559.201 5.825-2.012 5.452-2.264-.373 0-3.775 0-3.775z"/></g><g><path fill="#fe9067" d="M22.632 13.654s-.302-2.236-2.264-1.444c-1.911.792.604 5.825 2.767 5.172 2.163-.605-.503-3.728-.503-3.728z"/></g><g><path fill="#d47557" d="M29.273 23.298h.453a6.812 6.812 0 0 0 4.628-2.284c.1-.14.1-.326-.05-.42-.151-.092-.352-.092-.453.048-1.107 1.258-2.565 1.957-4.175 2.097-1.71.14-3.27-.513-4.628-1.911-.15-.14-.352-.14-.453 0-.1.14-.15.28 0 .42 1.308 1.304 2.968 2.05 4.678 2.05z"/></g><g><path fill="#d47557" d="M29.482 1.023c5.232.233 6.942 4.707 6.942 9.414 0 0-.704 1.072-.604 2.656l-.905.28-.352-4.148s-1.811-.373-1.359-3.355c0 0-5.432 1.584-9.306.559 0 0 .604 2.703-1.509 3.448l.151 3.496h-.704s-.201-1.026-.906-1.259c-1.106-4.94-.503-11.557 8.552-11.09z"/></g><g/><g/><g><path fill="#3ea3f2" d="M28.778 10.254c3.572-.233 5.986.513 7.093.42 1.51-.14 1.71-.746.704-3.076-.05-.093-.1-.233-.251-.326h.15v-.886C36.073 1.353 31.647-.23 27.673.002c-3.974.233-7.445 2.33-7.043 7.363 0 .326.05.606.151.885h.15a.397.397 0 0 0-.2.327c-.503 2.889-.1 3.122 2.364 2.889 1.157-.14 2.918-1.072 5.684-1.212z"/></g><g><path fill="#fccf31" d="M50.76 27.45H7.75v41.987h43.01z"/></g><g><path fill="#fe9067" d="M46.582 63.56l-3.722.839.15 1.118 2.415 5.779 7.093-.187 1.56-1.537.553-1.632z"/></g><g><path fill="#fff" d="M38.83 45.016c3.673 0 6.69-2.796 6.69-6.198 0-3.402-3.017-6.198-6.69-6.198-3.672 0-6.69 2.796-6.69 6.198 0 3.402 3.018 6.198 6.69 6.198z"/></g><g><path fill="#fe9067" d="M12.169 63.56l3.672.839-.1 1.118-2.415 5.779-7.093-.187-1.61-1.537-.553-1.632z"/></g><g><path fill="#3e3f43" d="M32.093 12.905c.302 0 .554-.233.554-.512 0-.28-.252-.513-.554-.513-.301 0-.553.233-.553.513s.252.512.553.512z"/></g><g><path fill="#3e3f43" d="M25.754 12.905c.301 0 .553-.233.553-.512 0-.28-.252-.513-.553-.513-.302 0-.604.233-.604.513s.252.512.604.512z"/></g></g></g></g></svg>