<svg width="24" height="36" viewBox="0 0 24 36" fill="none" xmlns="http://www.w3.org/2000/svg">
<path fill-rule="evenodd" clip-rule="evenodd" d="M0 3.52941C0 1.58017 1.55921 0 3.48259 0H19.8507C21.7741 0 23.3333 1.58017 23.3333 3.52941V32.4706C23.3333 34.4198 21.7741 36 19.8507 36H3.48259C1.55921 36 0 34.4198 0 32.4706V3.52941ZM3.48259 1.76471C2.5209 1.76471 1.74129 2.55479 1.74129 3.52941V32.4706C1.74129 33.4452 2.5209 34.2353 3.48259 34.2353H19.8507C20.8124 34.2353 21.592 33.4452 21.592 32.4706V3.52941C21.592 2.55479 20.8124 1.76471 19.8507 1.76471H19.2413C18.6449 2.26373 18.3511 3.29357 18.1856 4.45443C18.0549 5.37047 17.315 6.08824 16.4017 6.08824H6.93164C6.01836 6.08824 5.2784 5.37047 5.14777 4.45443C4.98222 3.29357 4.68847 2.26373 4.09204 1.76471H3.48259ZM6.41581 2.25239C6.64347 2.8799 6.77996 3.56251 6.87115 4.20201C6.87924 4.25873 6.90489 4.29725 6.92474 4.31575C6.92901 4.31973 6.93443 4.32353 6.93443 4.32353H16.3989C16.3989 4.32353 16.4043 4.31973 16.4086 4.31575C16.4284 4.29725 16.4541 4.25873 16.4622 4.20201C16.5534 3.56251 16.6899 2.8799 16.9175 2.25239C16.9748 2.09466 17.0412 1.93052 17.1192 1.76471H6.21409C6.29209 1.93052 6.35858 2.09466 6.41581 2.25239Z" fill="white"/>
<path d="M8.53234 3.08824C8.53234 2.74712 8.8052 2.47059 9.14179 2.47059H11.9279C12.2645 2.47059 12.5373 2.74712 12.5373 3.08824C12.5373 3.42935 12.2645 3.70588 11.9279 3.70588H9.14179C8.8052 3.70588 8.53234 3.42935 8.53234 3.08824Z" fill="white"/>
<path d="M13.2338 3.08824C13.2338 2.74712 13.5067 2.47059 13.8433 2.47059C14.1799 2.47059 14.4527 2.74712 14.4527 3.08824C14.4527 3.42935 14.1799 3.70588 13.8433 3.70588C13.5067 3.70588 13.2338 3.42935 13.2338 3.08824Z" fill="white"/>
</svg>
