<svg xmlns="http://www.w3.org/2000/svg" width="228" height="366" viewBox="0 0 228 366"><g><g><g/><g><g><path fill="#fe9067" d="M128.603 107c-1.6 7.4-4.1 19.2-4.5 22.1-.3 2.5-3.3 19.7-5.8 33.5-.6 4.8-3.3 13.9-3.5 17.7.6.7 1.8 2 2.2 3.6.3 1.2 1.3 6.8 1.5 8 .4 2.4-.1 2.5-.7 2.6-.5.1-1.6-2.7-2.9-6.4-.3-1.2-2.3.5-1.2 3.6.8 2.3 2.1 4.9 2.1 6.5-.1 1.6-1.1 3.4-2 3.6-1.2.2-3.6-4.3-5.6-8.3-2.5-5.1-1.6-7.2-1-16.8.9-15.2.1-34.6.7-50.7l4.8-25.9z"/></g><g><path fill="#fe9067" d="M202.9 107c1.6 7.4 4.1 19.2 4.5 22.1.3 2.5 3.3 19.7 5.7 33.5.6 4.8 3.3 13.9 3.6 17.7-.7.7-1.8 2-2.2 3.6-.3 1.2-1.3 6.8-1.5 8-.3 2.4.1 2.5.7 2.6.5.1 1.6-2.7 2.9-6.4.3-1.2 2.3.5 1.2 3.6-.8 2.3-2.1 4.9-2.1 6.5.1 1.6 1.1 3.4 2 3.6 1.2.2 3.6-4.3 5.6-8.3 2.5-5.1 1.6-7.2 1-16.8-1-15.2-.1-34.6-.7-50.7l-4.9-25.9z"/></g><g><path fill="#3e3f43" d="M153.6 49.898c6.1-2.9 16.9-2.9 24.8-.1l1.3 2.2-.8 4.9H154c0-2.2-.4-4.8-.4-7z"/></g><g><path fill="#3e3f43" d="M163.9 198.5l5 .1 3.3 37.8 13.4 129.5h16.8l-9.6-7.3 9.9-122.2c.5-16.8.5-48.5-.1-64.1l-37.2-10.9-35.2 9-4.9 67.3-3.1 120.2-10.8 8h16.8z"/></g><g><path fill="#3ea3f2" d="M204.6 173.8c-9.9 2.5-67.2 4.8-77.3 2.2l3.2-68.3-7.5 37.7-2.8 16-2.1 3.2-1.9 13-9-.4.5-12.6-1.4-3.2.1-34.7 4.5-24.8s8.7-33.6 10.7-36c1.8-2.2 25-11.5 33.2-13.2l-.1.5c11.1 9.4 21.8-.2 22.6-.2 9.2 2.6 30.3 10.8 31.9 12.9 2 2.4 12 32.7 12 32.7l4.1 32.6 2.2 30.4-2.6 6.6.6 9.2-9.8.7-2-12.1-3.1-4-10.1-54.3z"/></g><g><path fill="#fe9067" d="M177.5 38.3v14.6c0-.9-9.3 10.4-22.7.3l1-14.9z"/></g><g><path fill="#fe9067" d="M166.297 4.305c12.7.4 14.5 14.5 14.3 26.4-.2 11.9-5.4 19.8-13.5 20.4-8.1.6-13.9-7.5-16.3-18.3-2.5-11-4.9-29.1 15.5-28.5z"/></g><g><path fill="#fe9067" d="M178.8 27.703s0-4.8 4-3.6c4.1 1.2.4 12.5-4 11.7-4.5-.8 0-8.1 0-8.1z"/></g><g><path fill="#fe9067" d="M152.998 31.104s-.6-4.8-4.5-3.1c-3.8 1.7 1.2 12.5 5.5 11.1 4.3-1.4-1-8-1-8z"/></g><g><path fill="#d47557" d="M166.205 51.7h.9c3.6-.3 6.8-2 9.2-4.9.2-.3.2-.7-.1-.9-.3-.2-.7-.2-.9.1-2.2 2.7-5.1 4.2-8.4 4.5-3.4.3-6.5-1.1-9.2-4.1-.2-.3-.6-.3-.9 0-.3.3-.3.6 0 .9 2.7 2.9 6 4.4 9.4 4.4z"/></g><g/><g><path fill="#d47557" d="M167.598 3.9c1-.9 1.9-2.1 2.5-3.6 1.2.7 2.2 1.7 3 2.8.8-.9 1.5-1.9 2-3.1 9.3 5.7 5.5 23.1 5.5 24.4 0 0-1.4 2.3-1.2 5.7l-1.8.6-.7-9c-3.2-13.2-15.3 2.5-21.3-6 0 0-2.8 1.5-3.1 7.4l.4 7.5h-1.4s-.4-2.2-1.8-2.8c-2.2-10-1.2-23.2 14.1-23.8.5-.7.9-1.4 1.2-2.2 1.1.6 1.9 1.3 2.6 2.1z"/></g><g><path fill="#fff" d="M178.2 49.4c1 .5 1.4 1 1.6 1.6l.9 3.4c.3.5.3 1-.2 1.4-3.9 3.4-6.5 6.8-9.7 10.2-1.2-2.9-2.5-5.8-3.7-8.7 7.7-2.8 13-5.5 11.1-7.9z"/></g><g><path fill="#fff" d="M154.205 49.2c-1 .5-1.4 1-1.5 1.6l-.9 3.4c-.3.5-.3 1 .2 1.4 3.9 3.4 6.5 6.8 9.7 10.2 1.2-2.9 2.5-5.8 3.7-8.7-7.8-2.7-13-5.5-11.2-7.9z"/></g><g/><g><path fill="#fff" d="M165.5 61c-.4 0-.8.3-1.1.8l-.7 2c-.1.3 0 .7.2 1 .2.3.5.5.9.5h2.3c.4 0 .7-.2.9-.5.3-.3.3-.7.2-1l-.7-2c-.1-.5-.5-.8-1-.8zm-2.2 70.6l2.5 2.8 2.6-2.8 2.7-8.3-2.7-56.9c0-.2-.2-.3-.4-.3h-3.8c-.2 0-.4.2-.4.4l-3.1 56.8z"/></g><g><path fill="#3e3f43" d="M172.3 31.6c.6 0 1.1-.5 1.1-1.1 0-.6-.5-1.1-1.1-1.1-.6 0-1.1.5-1.1 1.1 0 .6.5 1.1 1.1 1.1z"/></g><g><path fill="#3e3f43" d="M159.6 31.6c.6 0 1.1-.5 1.1-1.1 0-.6-.5-1.1-1.1-1.1-.6 0-1.1.5-1.1 1.1 0 .6.5 1.1 1.1 1.1z"/></g><g><path fill="#3e3f43" d="M45.196 114.901c15.3 4.2 36.1 4.4 51.2-.3 1.6-.9 4.8-2.6 6-4.1 17.7-22.5-3.8-114.6-38.7-105.8-27.4 7-55.6 100-18.5 110.2z"/></g><g><path fill="#fe9067" d="M35.8 235.4l-2.6 18.7s-7.7 26.1-8.6 32.1c-.8 4.8-2.1 48-2.5 64.3-.1 3.8 8.1 2 8.1 2l.5-2 36.7-164.6.9 164.6s8.4 4 9.4 0c3.8-16.5 12-59.5 12.5-64.3.6-6-.6-32.1-.6-32.1l4.2-18.7-18.3-63.1z"/></g><g><path fill="#3e3f43" d="M22.1 350.5c-.1 3.8-.2 6.1-.2 6.1l-13 8.7h20.2l1-12.8.5-2z"/></g><g><path fill="#3e3f43" d="M77.6 350.5h-9.4l.1 14.9H87L76.1 357s.6-2.5 1.5-6.5z"/></g><g><path fill="#fe9067" d="M41.802 65.1c-6.7 4.2-40.5 36.2-41.8 40.1-1.3 3.9 37.6 48.5 37.6 48.5l5-8.6-23.4-35 27.7-26z"/></g><g><path fill="#fe9067" d="M96.7 66.8c6.7 4.1 38 34.5 39.3 38.4 1.3 3.9-35 48.2-35 48.2l-4.3-9 20.1-34.2L90 84.4z"/></g><g><path fill="#3ea3f2" d="M32.4 254.2h47.1l4.3-38 3 38h2.6c9.5-42.4 19.5-73.8 2.1-117.3-4.7-11.8-4.5-21.8-1.3-35.6 6.1-5.8 6.5-15 6.5-19.1V66.9S73.9 53.5 67.8 53.5c-6.2 0-26.9 11.9-26.9 11.9v16.4c-2 11.9 7.1 19.8 7.1 19.8 2.4 13 5.6 24.2.4 35-17.3 35.9-12.2 77.1-16 117.6z"/></g><g><path fill="#fe9067" d="M62.3 42.1v15s7.6 12.8 14.6.3l-.6-15.3h-14z"/></g><g><path fill="#fe9067" d="M65.295 6.5c-12.9 1.7-15 16.7-11.9 28.5 2.3 8.8 7.6 17.7 15.9 17.5 8.3-.2 13.3-11.6 14.8-18.5 2.4-11.2 2-30.2-18.8-27.5z"/></g><g><path fill="#fe9067" d="M55 31.703s-.5-5-4.5-3.3c-4 1.6.9 12.8 5.3 11.5 4.4-1.3-.8-8.2-.8-8.2z"/></g><g><path fill="#fe9067" d="M81.604 31.497s.1-5 4.3-3.6c4.1 1.4 0 12.8-4.5 11.9-4.6-1 .2-8.3.2-8.3z"/></g><g/><g><path fill="#d47557" d="M69.397 53.104c-2 0-3.9-.5-5.6-1.5-.3-.2-.4-.6-.3-.9.2-.3.6-.4.9-.2 3.2 1.9 7.5 1.7 10.5-.3.3-.2.7-.1.9.2.2.3.1.7-.2.9-1.8 1.2-4 1.8-6.2 1.8z"/></g><g><path fill="#3e3f43" d="M75.8 14.698c.2 7.9-1.3 15.9-5.4 22.6-4.1 6.7-11.1 11.8-19 12.6-2.8-6.8-4.8-14.3-4.1-21.5.7-7.2 4.2-14.5 10.1-18.9 5.9-4.5 14.4-5.6 20.8-2 5.4 3 8.7 8.8 10.1 14.7 1.4 6 1.3 9.3 1.1 15.4-9-4.7-14.8-12.8-13.6-22.9z"/></g><g><path fill="#fe9067" d="M97.602 143.801s-1.4-5.1-2-5c-.7 0-6.5 5.1-6.9 5.8-.4.7.5 2.3.5 2.3l2.2-.8.5 3.1 2 .3s-2.3 1.2-2.3 2.3c-.1 1.1 1 1.5 1 1.5l3.4-1.5 1.8 4.5 3.9-3.3z"/></g><g><path fill="#fe9067" d="M42.2 144.602s2-4.8 2.7-4.7c.7.1 5.8 5.9 6.1 6.6.3.8-.7 2.3-.7 2.3l-2-1.1-.9 3h-2s2.1 1.5 2 2.6c-.1 1.1-1.2 1.4-1.2 1.4l-3.1-1.9-2.4 4.3-3.4-3.7z"/></g><g><path fill="#3e3f43" d="M76.803 31c.6 0 1.1-.5 1.1-1.1 0-.6-.5-1.1-1.1-1.1-.6 0-1.1.5-1.1 1.1-.1.6.4 1.1 1.1 1.1z"/></g><g><path fill="#fff" d="M143.8 82.6l8.2 3.8h-9.9z"/></g><g/><g><path fill="#fff" d="M217.4 174.3c.5 0 .8-.4.8-.8 0-.5-.4-.8-.8-.8s-.8.4-.8.8c0 .5.3.8.8.8z"/></g><g><path fill="#fff" d="M114.695 173.9c.5 0 .8-.4.8-.8 0-.5-.3-.8-.8-.8s-.8.4-.8.8c-.1.4.3.8.8.8z"/></g><g><path fill="#fff" d="M144 89.7c.5 0 .8-.4.8-.8 0-.5-.4-.8-.8-.8s-.8.4-.8.8c0 .5.3.8.8.8z"/></g></g></g></g></svg>