<svg width="131" height="81" viewBox="0 0 131 81" fill="none" xmlns="http://www.w3.org/2000/svg">
<path d="M25.0875 29.6687C25.4191 29.4205 25.4866 28.9504 25.2384 28.6188C24.9902 28.2872 24.5201 28.2197 24.1885 28.4679L25.0875 29.6687ZM19.5588 37.2958L18.8088 37.302C18.8112 37.5885 18.9766 37.8486 19.235 37.9723C19.4935 38.096 19.7998 38.0617 20.0244 37.8838L19.5588 37.2958ZM5.10155 53.3589L4.83394 54.0595C4.87264 54.0743 4.9125 54.0859 4.95311 54.0941L5.10155 53.3589ZM17.0942 51.3159C17.4805 51.1662 17.6722 50.7318 17.5226 50.3456C17.3729 49.9593 16.9385 49.7676 16.5523 49.9172L17.0942 51.3159ZM28.1546 40.4302L28.6857 39.9006C28.5632 39.7778 28.402 39.7012 28.2295 39.6839L28.1546 40.4302ZM80.1227 9.47939L80.578 10.0753C80.6047 10.055 80.63 10.0328 80.6537 10.009L80.1227 9.47939ZM71.5265 6.34513L71.0922 5.73367C71.086 5.73806 71.0799 5.74255 71.0738 5.74713L71.5265 6.34513ZM31.0365 56.8772C30.8159 57.2277 30.9212 57.6908 31.2718 57.9114C31.6223 58.132 32.0854 58.0267 32.306 57.6762L31.0365 56.8772ZM39.3639 45.1605L38.7333 44.7545L39.3639 45.1605ZM50.4267 43.1725L51.1749 43.1213C51.1571 42.861 51.0054 42.6288 50.7743 42.5079C50.5432 42.387 50.2658 42.3949 50.0419 42.5287L50.4267 43.1725ZM60.9766 41.9971L61.5278 42.5057C61.7665 42.247 61.7932 41.8571 61.5919 41.5683C61.3907 41.2795 61.0157 41.1695 60.6903 41.3039L60.9766 41.9971ZM71.9172 42.7807L71.7887 42.0418C71.7727 42.0446 71.7568 42.0479 71.7411 42.0517L71.9172 42.7807ZM77.7783 42.7807L78.3158 42.2576C78.2067 42.1455 78.0652 42.0703 77.9111 42.0425L77.7783 42.7807ZM85.9838 42.7807L85.9084 42.0345C85.872 42.0382 85.8359 42.0445 85.8004 42.0534L85.9838 42.7807ZM111.718 43.1369C112.131 43.167 112.49 42.8565 112.52 42.4434C112.551 42.0302 112.24 41.671 111.827 41.6409L111.718 43.1369ZM85.4202 79.5051C85.1469 79.8164 85.1777 80.2903 85.4889 80.5636C85.8002 80.8369 86.274 80.8061 86.5473 80.4949L85.4202 79.5051ZM126.419 41.5374C126.165 41.8647 126.224 42.3358 126.552 42.5897C126.879 42.8436 127.35 42.7841 127.604 42.4568L126.419 41.5374ZM24.1885 28.4679C22.286 29.8921 20.9145 31.1069 20.0366 32.4757C19.1378 33.8772 18.7929 35.3793 18.8088 37.302L20.3088 37.2896C20.2946 35.5754 20.5971 34.3803 21.2992 33.2855C22.0223 32.1581 23.2054 31.0776 25.0875 29.6687L24.1885 28.4679ZM20.0244 37.8838C24.2733 34.5193 27.8602 31.6275 29.9292 29.1698C30.9606 27.9446 31.6957 26.7364 31.8854 25.5549C32.0873 24.2969 31.6558 23.1742 30.6078 22.24L29.6097 23.3597C30.3198 23.9927 30.5163 24.6201 30.4044 25.3171C30.2802 26.0906 29.7596 27.0422 28.7817 28.2038C26.8322 30.5195 23.386 33.3086 19.0932 36.7078L20.0244 37.8838ZM30.6078 22.24C30.1627 21.8433 29.5565 21.7745 29.0197 21.8092C28.4587 21.8456 27.8082 22.0053 27.1071 22.2469C25.6993 22.7322 23.9459 23.5984 22.0301 24.7243C18.1916 26.9803 13.5942 30.3426 9.624 34.0019C5.67519 37.6415 2.25578 41.6573 0.890298 45.2311C0.203512 47.0286 0.000617266 48.8087 0.621837 50.3916C1.24953 51.9909 2.65385 53.2268 4.83394 54.0595L5.36916 52.6583C3.4464 51.9239 2.44517 50.9316 2.01815 49.8435C1.58465 48.739 1.67785 47.3726 2.2915 45.7665C3.5269 42.5331 6.72571 38.7132 10.6406 35.1049C14.5341 31.5162 19.0458 28.2181 22.7901 26.0175C24.6657 24.9152 26.3221 24.1041 27.596 23.665C28.2358 23.4445 28.744 23.3302 29.1166 23.3061C29.5133 23.2804 29.6152 23.3646 29.6097 23.3597L30.6078 22.24ZM4.95311 54.0941C7.33199 54.5744 9.84423 54.0175 14.7387 52.2096L14.219 50.8026C9.30536 52.6175 7.16489 53.0104 5.24999 52.6237L4.95311 54.0941ZM14.7387 52.2096C15.4662 51.9409 16.249 51.6434 17.0942 51.3159L16.5523 49.9172C15.7123 50.2427 14.9372 50.5373 14.219 50.8026L14.7387 52.2096ZM15.2288 51.5061C15.2288 51.2729 15.3224 50.9144 15.5732 50.4268C15.8179 49.9508 16.1831 49.4078 16.6518 48.822C17.5886 47.6512 18.8922 46.3675 20.3282 45.1851C21.7638 44.003 23.3082 42.9417 24.7171 42.2044C26.1633 41.4475 27.3368 41.102 28.0798 41.1765L28.2295 39.6839C27.0187 39.5625 25.5059 40.0985 24.0216 40.8754C22.5 41.6717 20.8696 42.7963 19.3747 44.0271C17.8802 45.2577 16.4975 46.6139 15.4806 47.8849C14.9724 48.5199 14.5439 49.1482 14.2392 49.7408C13.9405 50.3218 13.7288 50.9293 13.7288 51.5061H15.2288ZM13.7564 51.7076C13.9164 52.2813 14.2787 52.7078 14.7951 52.9424C15.2765 53.1611 15.8298 53.1859 16.3667 53.1208C17.4393 52.9909 18.7409 52.465 20.0577 51.7475C22.7072 50.3036 25.708 47.9214 27.5648 45.6331L26.4 44.688C24.684 46.8028 21.8437 49.0659 19.3399 50.4303C18.08 51.1169 16.977 51.5359 16.1864 51.6317C15.7918 51.6795 15.5488 51.6373 15.4155 51.5768C15.3173 51.5322 15.2466 51.4672 15.2013 51.3046L13.7564 51.7076ZM27.5648 45.6331C28.3554 44.6588 28.9827 43.6482 29.2568 42.6924C29.5368 41.7158 29.4683 40.6853 28.6857 39.9006L27.6236 40.9598C27.8938 41.2307 28.0025 41.6247 27.8149 42.2789C27.6213 42.954 27.1362 43.7807 26.4 44.688L27.5648 45.6331ZM22.2621 49.833C22.2621 49.5272 22.3906 49.0976 22.6843 48.5965C22.9714 48.1063 23.385 47.6021 23.8723 47.1596C24.8882 46.237 26.0245 45.7506 26.8499 45.8987L27.1149 44.4223C25.5959 44.1497 23.997 45.0201 22.8639 46.0492C22.2766 46.5825 21.7622 47.2029 21.39 47.8382C21.0243 48.4625 20.7621 49.1593 20.7621 49.833H22.2621ZM21.0613 50.4324C21.4903 50.755 22.0197 50.7706 22.442 50.7127C22.8845 50.652 23.3609 50.4907 23.8256 50.284C24.7595 49.8686 25.7803 49.2088 26.6262 48.5186C27.0512 48.1719 27.4438 47.808 27.7657 47.4515C28.0796 47.1039 28.3607 46.7259 28.521 46.35C28.6716 45.9967 28.8015 45.4175 28.3988 44.9312C28.0414 44.4996 27.4662 44.4105 26.9824 44.4105V45.9105C27.3778 45.9105 27.3398 46.0042 27.2435 45.8878C27.1018 45.7167 27.2164 45.5852 27.1411 45.7617C27.0755 45.9157 26.9201 46.1498 26.6524 46.4462C26.3928 46.7336 26.0589 47.0456 25.678 47.3564C24.9121 47.9812 24.0037 48.563 23.2159 48.9135C22.8197 49.0898 22.4872 49.1925 22.2382 49.2266C21.9691 49.2635 21.9246 49.2048 21.9629 49.2336L21.0613 50.4324ZM20.8315 49.518C20.5685 50.0862 20.3876 50.6216 20.3737 51.0851C20.3665 51.3259 20.4026 51.5963 20.5416 51.847C20.6888 52.1124 20.9171 52.2935 21.1791 52.3927C21.6423 52.5681 22.1813 52.4785 22.6471 52.3444C23.1503 52.1995 23.7429 51.9482 24.4079 51.6149C27.0564 50.287 31.2917 47.4285 36.6866 43.508C47.4994 35.6501 63.1777 23.3704 80.578 10.0753L79.6674 8.88344C62.241 22.1983 46.5984 34.4506 35.8047 42.2946C30.3963 46.225 26.257 49.0099 23.7356 50.2739C23.1081 50.5885 22.6086 50.7945 22.232 50.903C21.8181 51.0222 21.6897 50.9821 21.7102 50.9899C21.7508 51.0052 21.8138 51.0482 21.8534 51.1195C21.8848 51.1762 21.871 51.1967 21.873 51.13C21.8776 50.9784 21.9518 50.6685 22.1927 50.148L20.8315 49.518ZM80.6537 10.009C83.5857 7.06919 85.214 4.88293 85.7517 3.34162C86.022 2.56684 86.0771 1.77477 85.6462 1.14358C85.2193 0.518304 84.4845 0.300696 83.7821 0.258428C82.3743 0.173715 80.3558 0.73937 78.1761 1.68399C75.9631 2.64299 73.4757 4.04079 71.0922 5.73367L71.9608 6.9566C74.2661 5.31923 76.6629 3.97452 78.7725 3.06031C80.9153 2.13173 82.6576 1.69348 83.692 1.75572C84.2106 1.78693 84.3672 1.93052 84.4074 1.98935C84.4435 2.04227 84.5413 2.25721 84.3354 2.84756C83.9207 4.03649 82.5207 6.01291 79.5917 8.94976L80.6537 10.009ZM71.0738 5.74713C59.2694 14.6823 50.8802 25.8911 38.7333 44.7545L39.9945 45.5666C52.1322 26.7173 60.4019 15.7064 71.9791 6.94313L71.0738 5.74713ZM38.7333 44.7545C36.334 48.4805 33.7865 52.5078 31.0365 56.8772L32.306 57.6762C35.0553 53.3079 37.5994 49.2859 39.9945 45.5666L38.7333 44.7545ZM38.6147 45.1261C38.5633 46.2434 38.7279 47.2596 39.4211 47.8775C40.1363 48.5149 41.1317 48.4869 42.1001 48.2441C43.1011 47.9931 44.3251 47.4507 45.7514 46.7054C47.1872 45.955 48.8745 44.9737 50.8114 43.8163L50.0419 42.5287C48.1077 43.6845 46.4518 44.6469 45.0566 45.376C43.6518 46.1101 42.5569 46.5831 41.7352 46.7892C40.8809 47.0034 40.5499 46.8742 40.4191 46.7576C40.2664 46.6215 40.0654 46.2312 40.1131 45.195L38.6147 45.1261ZM49.6784 43.2237C49.7254 43.9111 49.9286 44.6088 50.5332 45.0652C51.1143 45.5039 51.8924 45.5839 52.7509 45.4948C54.4658 45.3167 57.165 44.3824 61.2628 42.6903L60.6903 41.3039C56.5508 43.0132 54.0561 43.8512 52.596 44.0028C51.8669 44.0785 51.5622 43.9626 51.437 43.8681C51.3354 43.7913 51.2089 43.6185 51.1749 43.1213L49.6784 43.2237ZM60.4254 41.4885C59.5608 42.4255 58.7673 43.2633 58.379 43.8857C58.2763 44.0504 58.1798 44.2334 58.1196 44.4259C58.06 44.6164 58.0185 44.8728 58.0997 45.1459C58.2841 45.7665 58.8874 45.9313 59.2515 45.9807C59.6676 46.0372 60.2109 46.0105 60.8635 45.9312C61.5295 45.8504 62.3631 45.7073 63.3835 45.5036C65.4249 45.096 68.2625 44.4354 72.0934 43.5097L71.7411 42.0517C67.9086 42.9777 65.098 43.6317 63.0898 44.0326C62.0856 44.2331 61.2941 44.3679 60.6826 44.4422C60.0578 44.5181 59.6714 44.524 59.4533 44.4944C59.1833 44.4577 59.448 44.4176 59.5375 44.7186C59.5712 44.832 59.543 44.8998 59.5512 44.8736C59.5588 44.8495 59.5844 44.7875 59.6518 44.6795C59.9437 44.2115 60.5964 43.5151 61.5278 42.5057L60.4254 41.4885ZM72.0458 43.5196C74.3168 43.1244 75.51 43.1345 77.6454 43.5188L77.9111 42.0425C75.5998 41.6265 74.2296 41.6171 71.7887 42.0418L72.0458 43.5196ZM77.2408 43.3037C78.1857 44.2748 79.3634 44.5864 80.8075 44.5283C82.2082 44.4719 83.9629 44.0637 86.1671 43.5079L85.8004 42.0534C83.5616 42.6179 81.9635 42.9805 80.7472 43.0295C79.5744 43.0767 78.8709 42.8281 78.3158 42.2576L77.2408 43.3037ZM86.0591 43.5269C96.6665 42.4559 102.221 42.4456 111.718 43.1369L111.827 41.6409C102.246 40.9434 96.6044 40.9546 85.9084 42.0345L86.0591 43.5269ZM86.5473 80.4949C102.36 62.4865 115.329 49.4852 122.965 42.7557C124.874 41.0733 126.439 39.7922 127.625 38.9251C128.22 38.4909 128.707 38.1694 129.087 37.9547C129.277 37.8474 129.431 37.7724 129.55 37.7237C129.609 37.6997 129.656 37.684 129.69 37.6742C129.726 37.6642 129.742 37.6625 129.741 37.6625C129.741 37.6626 129.733 37.6633 129.721 37.6629C129.708 37.6625 129.688 37.661 129.662 37.6559C129.609 37.6453 129.53 37.6186 129.45 37.556C129.269 37.4146 129.251 37.2333 129.25 37.1973C129.249 37.1701 129.255 37.2008 129.215 37.3171C129.179 37.4246 129.117 37.5709 129.02 37.7608C128.624 38.534 127.783 39.7787 126.419 41.5374L127.604 42.4568C128.975 40.6895 129.891 39.3509 130.355 38.4437C130.473 38.2135 130.569 37.9962 130.637 37.7958C130.701 37.6042 130.755 37.3829 130.75 37.1588C130.744 36.926 130.666 36.6031 130.374 36.3745C130.102 36.1616 129.792 36.1501 129.593 36.1699C129.208 36.2081 128.772 36.4101 128.349 36.6486C127.898 36.9033 127.359 37.2621 126.74 37.714C125.502 38.6192 123.898 39.9336 121.973 41.6303C114.272 48.4173 101.257 61.4696 85.4202 79.5051L86.5473 80.4949Z" fill="#3EA3F2"/>
</svg>
